<?xml version="1.0" encoding="UTF-8" standalone="no"?>
<!-- Created with Inkscape (http://www.inkscape.org/) -->

<svg
   xmlns:dc="http://purl.org/dc/elements/1.1/"
   xmlns:cc="http://creativecommons.org/ns#"
   xmlns:rdf="http://www.w3.org/1999/02/22-rdf-syntax-ns#"
   xmlns:svg="http://www.w3.org/2000/svg"
   xmlns="http://www.w3.org/2000/svg"
   xmlns:sodipodi="http://sodipodi.sourceforge.net/DTD/sodipodi-0.dtd"
   xmlns:inkscape="http://www.inkscape.org/namespaces/inkscape"
   width="432.35825"
   height="447.35449"
   id="svg2"
   version="1.1"
   inkscape:version="0.48.1 "
   sodipodi:docname="Neues Dokument 1">
  <title
     id="title3256">Plant</title>
  <defs
     id="defs4" />
  <sodipodi:namedview
     id="base"
     pagecolor="#ffffff"
     bordercolor="#666666"
     borderopacity="1.0"
     inkscape:pageopacity="0.0"
     inkscape:pageshadow="2"
     inkscape:zoom="0.49497475"
     inkscape:cx="177.36174"
     inkscape:cy="30.442268"
     inkscape:document-units="px"
     inkscape:current-layer="layer1"
     showgrid="false"
     fit-margin-top="0"
     fit-margin-left="0"
     fit-margin-right="0"
     fit-margin-bottom="0"
     inkscape:window-width="1920"
     inkscape:window-height="1058"
     inkscape:window-x="1912"
     inkscape:window-y="-8"
     inkscape:window-maximized="1" />
  <metadata
     id="metadata7">
    <rdf:RDF>
      <cc:Work
         rdf:about="">
        <dc:format>image/svg+xml</dc:format>
        <dc:type
           rdf:resource="http://purl.org/dc/dcmitype/StillImage" />
        <dc:title>Plant</dc:title>
        <dc:date>2015</dc:date>
        <dc:creator>
          <cc:Agent>
            <dc:title>arking</dc:title>
          </cc:Agent>
        </dc:creator>
        <dc:subject>
          <rdf:Bag>
            <rdf:li>plant</rdf:li>
            <rdf:li>botany</rdf:li>
          </rdf:Bag>
        </dc:subject>
        <dc:description>Plant</dc:description>
      </cc:Work>
    </rdf:RDF>
  </metadata>
  <g
     inkscape:label="Ebene 1"
     inkscape:groupmode="layer"
     id="layer1"
     transform="translate(12.634724,180.01667)">
    <g
       id="g3231"
       transform="matrix(0.51205883,0,0,0.51205883,306.25855,-221.28999)">
      <path
         sodipodi:nodetypes="ccccccc"
         inkscape:connector-curvature="0"
         id="path2985"
         d="M -612.80195,925.64935 C -581.68801,800.89968 -466.79601,600.2355 -370.311,478.93174 -252.37526,334.88975 -106.13108,210.03933 65.186506,134.55034 114.67927,114.48122 167.87218,99.826063 221.58583,101.04121 c -8.30785,8.43728 -15.09856,0.84312 -34.24045,9.05229 -392.7818,105.04312 -682.62416,497.69677 -754.04494,815.71639 -85.15221,59.2568 -48.71756,8.94477 -46.10239,-0.16054 z"
         style="fill:#008000;fill-opacity:1;stroke:none" />
      <path
         inkscape:connector-curvature="0"
         id="path2988"
         d="m -361.89934,443.53546 c -22.4329,-18.32892 -43.18134,-41.36963 -50.05365,-70.27099 -5.29022,-20.81016 1.50103,-43.62303 16.01326,-59.1927 10.14636,-10.45467 15.71727,-25.56892 29.2549,-32.43936 5.46108,-3.19938 12.49674,-2.10729 17.08834,2.09634 14.16296,9.33955 26.92168,22.21046 32.74159,38.42551 6.1026,19.39563 0.13282,40.05104 -8.21391,57.80933 -6.23967,14.02491 -19.72383,24.12135 -23.31163,39.40819 0.91066,5.96869 -0.41191,16.65196 -9.00033,13.90259 -6.87602,-4.43745 -4.22796,-14.06033 -2.3565,-20.52213 5.50176,-14.59374 17.77863,-25.21193 24.3016,-39.28997 8.35746,-16.25333 12.5635,-36.48781 4.58004,-53.69966 -4.58712,-9.35844 -13.04357,-15.89072 -20.70462,-22.59476 -6.45394,-6.30341 -16.44034,-3.22489 -19.51149,4.85216 -10.58935,13.46972 -23.45849,26.13749 -28.58853,42.97651 -5.03341,16.40272 0.65486,33.94538 8.80967,48.33021 9.1012,15.95313 22.28345,29.20354 36.67711,40.44038 5.27712,4.94508 -1.43604,15.76557 -7.72585,9.76835 z"
         style="fill:#008000;fill-opacity:1;stroke:none" />
      <path
         inkscape:connector-curvature="0"
         id="path2988-2"
         d="m -435.94706,530.84108 c -29.17056,-13.79621 -57.64916,-32.8688 -72.31692,-61.23925 -10.93718,-20.34852 -9.08673,-45.57823 3.03371,-65.09038 8.58022,-13.19521 10.98404,-30.15944 24.17428,-40.4257 5.21564,-4.585 13.21837,-5.08603 19.3003,-1.79351 17.86734,6.39562 35.0602,16.77865 45.44868,32.23983 11.48205,18.69329 10.00358,41.49538 5.19923,61.84543 -3.40707,15.99003 -15.74452,29.58868 -15.92593,46.27148 2.47009,5.97712 3.64569,17.36091 -6.47182,16.50408 -8.65063,-3.00462 -8.10819,-13.59667 -7.64141,-20.73094 2.45591,-16.40849 13.33785,-30.26785 17.04325,-46.37872 5.18657,-18.79217 4.82983,-40.74835 -8.18226,-56.74079 -7.34574,-8.63823 -18.24925,-13.44794 -28.32069,-18.62039 -8.64592,-5.03729 -18.86575,0.47296 -20.25375,9.56047 -8.3251,16.42416 -19.35362,32.54608 -20.8483,51.19626 -1.49583,18.17538 9.07468,35.04363 21.57933,48.06515 13.93097,14.42787 31.68281,25.10605 50.2707,33.41528 7.01799,3.90213 2.30175,16.67962 -6.0884,11.9217 z"
         style="fill:#008000;fill-opacity:1;stroke:none" />
      <path
         inkscape:connector-curvature="0"
         id="path2988-2-6"
         d="m -528.22118,652.1521 c -33.53713,-15.74403 -66.27872,-37.50937 -83.14212,-69.8853 -12.57437,-23.22143 -10.44693,-52.01319 3.48783,-74.28015 9.86461,-15.05817 12.62826,-34.41749 27.79296,-46.13319 5.99637,-5.23233 15.19704,-5.8041 22.18938,-2.04673 20.54192,7.29859 40.3084,19.14754 52.25195,36.7916 13.20081,21.3325 11.50102,47.35389 5.9775,70.57706 -3.91707,18.24759 -18.10133,33.76616 -18.3099,52.80431 2.83984,6.821 4.19142,19.81201 -7.44059,18.83421 -9.94555,-3.42883 -9.32191,-15.51631 -8.78526,-23.65783 2.82354,-18.72512 15.33441,-34.54121 19.59447,-52.9267 5.96296,-21.44534 5.55281,-46.50139 -9.40707,-64.75172 -8.44533,-9.85782 -20.981,-15.34658 -32.56005,-21.2493 -9.94013,-5.74848 -21.68978,0.53973 -23.28555,10.91026 -9.5713,18.743 -22.25069,37.14109 -23.96911,58.42439 -1.71974,20.74146 10.43308,39.99126 24.80957,54.85122 16.01631,16.46486 36.42544,28.65064 57.79577,38.133 8.06852,4.45306 2.64631,19.03453 -6.99978,13.60487 z"
         style="fill:#008000;fill-opacity:1;stroke:none" />
      <path
         inkscape:connector-curvature="0"
         id="path2988-0"
         d="m -270.1054,347.71913 c -19.1472,-15.64432 -36.85665,-35.3103 -42.72239,-59.97853 -4.51537,-17.76214 1.28118,-37.23366 13.66783,-50.52287 8.66024,-8.9234 13.41519,-21.82389 24.97,-27.68804 4.6612,-2.73077 10.66636,-1.79864 14.58544,1.7893 12.08854,7.9716 22.97852,18.95734 27.946,32.7974 5.20877,16.5548 0.11337,34.18485 -7.01084,49.34211 -5.32575,11.97071 -16.83492,20.58835 -19.89722,33.63616 0.77728,5.09447 -0.35158,14.21298 -7.68207,11.8663 -5.8689,-3.7875 -3.6087,-12.00094 -2.01135,-17.51629 4.69593,-12.45623 15.17463,-21.51919 20.7422,-33.53524 7.13336,-13.87274 10.72335,-31.14352 3.90921,-45.83439 -3.91526,-7.98773 -11.13311,-13.56324 -17.67206,-19.28535 -5.50864,-5.38016 -14.03236,-2.75255 -16.65368,4.14148 -9.03835,11.49683 -20.02258,22.30918 -24.40123,36.68183 -4.29618,14.00024 0.55894,28.97347 7.51934,41.25137 7.76816,13.61651 19.01964,24.92616 31.30509,34.51716 4.50419,4.22079 -1.22571,13.45642 -6.59427,8.3376 z"
         style="fill:#008000;fill-opacity:1;stroke:none" />
      <path
         inkscape:connector-curvature="0"
         id="path2988-0-1"
         d="m -195.19294,274.85974 c -14.11305,-15.32883 -26.54829,-33.84178 -28.50781,-55.11922 -1.65437,-15.35534 5.49741,-30.91025 17.41175,-40.52366 8.28626,-6.41441 13.78752,-16.61124 24.12475,-20.12915 4.21345,-1.72377 9.11247,-0.23188 11.95525,3.22754 9.13687,8.08822 16.91533,18.54846 19.41336,30.68553 2.37645,14.43058 -3.97141,28.53261 -11.71763,40.33038 -5.86687,9.35326 -16.49352,15.17373 -20.60019,25.6948 0.0425,4.34257 -1.9838,11.81553 -7.82024,8.98589 -4.44571,-3.85781 -1.58321,-10.44114 0.4054,-14.8524 5.39918,-9.83323 15.21912,-16.14777 21.29312,-25.5101 7.60112,-10.72506 12.65029,-24.70642 8.71285,-37.77293 -2.31629,-7.12955 -7.67471,-12.63948 -12.44932,-18.19096 -3.95574,-5.14366 -11.37928,-3.96536 -14.38612,1.47429 -8.90779,8.51634 -19.35754,16.23021 -24.71997,27.69997 -5.24933,11.16889 -2.9798,24.23795 1.36665,35.30881 4.86113,12.28368 12.90265,23.05715 22.01118,32.51979 3.25565,4.05698 -2.62307,11.0804 -6.49303,6.17142 z"
         style="fill:#008000;fill-opacity:1;stroke:none" />
      <path
         inkscape:connector-curvature="0"
         id="path2988-0-1-9"
         d="m -120.10766,221.70729 c -8.853,-14.45067 -15.86665,-31.17856 -14.0861,-48.46604 1.09325,-12.51366 9.24523,-23.80248 20.26388,-29.60141 7.62065,-3.81634 13.61335,-11.08881 22.415415,-12.27139 3.633287,-0.71333 7.308232,1.24719 9.033061,4.45464 6.020012,7.8905 10.583184,17.4604 10.669008,27.53845 -0.371684,11.88918 -7.653765,22.14495 -15.689577,30.34212 -6.151872,6.54183 -15.546787,9.51637 -20.477577,17.26677 -0.64859,3.47208 -3.44015,9.11705 -7.65291,5.94166 -2.94136,-3.7773 0.37765,-8.58092 2.65791,-11.78858 5.85409,-6.99835 14.682905,-10.49395 21.001495,-17.01046 7.751415,-7.36395 13.978174,-17.72755 12.889781,-28.77354 -0.727833,-6.05347 -4.137873,-11.29262 -7.075488,-16.47316 -2.348246,-4.7264 -8.457463,-4.9529 -11.711903,-1.08462 -8.446985,5.39601 -17.998345,9.90929 -24.080325,18.21938 -5.94444,8.08776 -6.18745,18.87365 -4.459,28.39139 1.94854,10.56647 6.67241,20.42765 12.45377,29.4105 1.96038,3.74918 -3.83475,8.42993 -6.15144,3.90429 z"
         style="fill:#008000;fill-opacity:1;stroke:none" />
      <path
         inkscape:connector-curvature="0"
         id="path2988-0-1-9-9"
         d="m -46.686255,177.88304 c -6.722524,-10.97311 -12.048337,-23.67543 -10.696277,-36.80267 0.830159,-9.50225 7.020363,-18.07441 15.387373,-22.47783 5.786738,-2.89793 10.337294,-8.42028 17.021139,-9.31827 2.758936,-0.54167 5.549504,0.94705 6.859253,3.38263 4.571295,5.99165 8.036338,13.25855 8.101509,20.91131 -0.282239,9.02805 -5.811885,16.81576 -11.913877,23.04028 -4.671422,4.96754 -11.805449,7.22626 -15.549643,13.11152 -0.492506,2.63652 -2.612277,6.92303 -5.811235,4.5118 -2.233521,-2.86829 0.286768,-6.51592 2.018283,-8.95166 4.445302,-5.31419 11.14946,-7.96857 15.94748,-12.91689 5.886035,-5.59181 10.614323,-13.46141 9.787852,-21.84918 -0.55268,-4.5967 -3.142093,-8.57504 -5.37277,-12.50889 -1.78314,-3.58899 -6.422172,-3.76098 -8.89343,-0.8236 -6.414216,4.09746 -13.667039,7.52462 -18.285389,13.83488 -4.513909,6.14144 -4.698439,14.3317 -3.385941,21.559 1.479623,8.02364 5.066693,15.51173 9.456767,22.33285 1.488614,2.84694 -2.911916,6.40127 -4.671094,2.96472 z"
         style="fill:#008000;fill-opacity:1;stroke:none" />
      <path
         inkscape:connector-curvature="0"
         id="path2988-0-1-9-9-4"
         d="M 10.867196,144.87388 C 5.6941055,136.4299 1.5958055,126.65527 2.6362355,116.55365 c 0.63882,-7.31212 5.40228,-13.90853 11.8408205,-17.29703 4.45299,-2.23001 7.95472,-6.47954 13.09803,-7.17056 2.12305,-0.41682 4.27043,0.72877 5.2783,2.60299 3.51769,4.61067 6.18409,10.20266 6.23424,16.09158 -0.21719,6.94722 -4.47233,12.93998 -9.16791,17.72985 -3.59474,3.8226 -9.08447,5.56072 -11.96569,10.08952 -0.37899,2.02884 -2.01019,5.32738 -4.47184,3.4719 -1.71872,-2.2072 0.22068,-5.0141 1.5531,-6.88844 3.42073,-4.08936 8.57968,-6.13194 12.27184,-9.93975 4.52939,-4.30299 8.16788,-10.35876 7.5319,-16.81328 -0.4253,-3.53724 -2.41789,-6.59863 -4.13443,-9.62579 -1.37216,-2.76178 -4.94196,-2.89413 -6.84363,-0.63377 -4.93584,3.15306 -10.517,5.79031 -14.0709005,10.64615 -3.47352,4.72594 -3.61552,11.02847 -2.60553,16.58999 1.1386,6.17431 3.8989105,11.93651 7.2771305,17.18547 1.14551,2.19077 -2.24077,4.92588 -3.59447,2.2814 z"
         style="fill:#008000;fill-opacity:1;stroke:none" />
      <path
         inkscape:connector-curvature="0"
         id="path2988-0-1-9-9-4-3"
         d="m 45.49622,125.7576 c -2.08094,-7.77519 -3.016953,-16.33908 0.127124,-23.97086 2.186788,-5.550695 7.422546,-9.590947 13.222713,-10.744387 3.985258,-0.709277 7.695682,-3.212059 11.863428,-2.562556 1.750742,0.16556 3.159562,1.554313 3.51208,3.247667 1.676323,4.405571 2.462578,9.379236 1.141441,13.979996 -1.773934,5.36372 -6.474134,9.05097 -11.23972,11.69908 -3.684284,2.14859 -8.363853,2.23508 -11.655226,5.09881 -0.763963,1.49352 -2.797041,3.68727 -4.286797,1.67271 -0.829565,-2.11704 1.330134,-3.85646 2.801409,-5.00935 3.610304,-2.39668 8.10242,-2.79682 11.859214,-4.91139 4.523614,-2.30707 8.757824,-6.18586 9.753072,-11.36269 0.485609,-2.85477 -0.360075,-5.700736 -0.998549,-8.456253 -0.431389,-2.469172 -3.182723,-3.396861 -5.186776,-2.074637 -4.574753,1.317063 -9.533249,2.083106 -13.424371,5.046332 -3.798477,2.880548 -5.364902,7.759248 -5.862432,12.326578 -0.538842,5.07457 0.281281,10.20257 1.701485,15.07334 0.386657,1.97183 -2.883994,3.32111 -3.328095,0.94761 z"
         style="fill:#008000;fill-opacity:1;stroke:none" />
      <path
         inkscape:connector-curvature="0"
         id="path2988-0-1-9-9-4-3-4"
         d="m 84.283952,115.08259 c -1.645814,-6.1494 -2.386104,-12.92257 0.10054,-18.958547 1.729531,-4.390039 5.870492,-7.58548 10.457845,-8.497735 3.151934,-0.560962 6.086513,-2.540418 9.382773,-2.02672 1.38467,0.130941 2.49891,1.229303 2.77771,2.568573 1.32581,3.484372 1.94765,7.418038 0.90277,11.056778 -1.40301,4.242161 -5.1204,7.158411 -8.889492,9.252801 -2.913905,1.69932 -6.614976,1.76772 -9.218119,4.03265 -0.604216,1.18122 -2.212178,2.91626 -3.390429,1.32294 -0.656099,-1.67437 1.052007,-3.05007 2.215634,-3.96189 2.855393,-1.89554 6.408202,-2.21201 9.379455,-3.88442 3.577721,-1.82466 6.926561,-4.89239 7.713701,-8.986747 0.38407,-2.257837 -0.28479,-4.508714 -0.78975,-6.688046 -0.34119,-1.952866 -2.51722,-2.686576 -4.10223,-1.640832 -3.618165,1.041662 -7.539842,1.647531 -10.617328,3.991141 -3.004217,2.278226 -4.243098,6.136788 -4.636594,9.749084 -0.426169,4.01348 0.222464,8.06921 1.3457,11.9215 0.305809,1.55952 -2.280947,2.62667 -2.632186,0.74947 z"
         style="fill:#008000;fill-opacity:1;stroke:none" />
      <path
         inkscape:connector-curvature="0"
         id="path2988-0-1-9-9-4-3-4-2"
         d="m 116.0542,107.25666 c -0.74976,-6.32153 -0.51413,-13.130952 2.8099,-18.749428 2.33938,-4.097684 6.89464,-6.668291 11.56529,-6.915343 3.19976,-0.104583 6.38719,-1.644169 9.57615,-0.664498 1.35172,0.327553 2.29749,1.573927 2.38196,2.939298 0.81405,3.638122 0.86713,7.620285 -0.68723,11.072267 -1.99507,3.998004 -6.0912,6.352844 -10.12099,7.886874 -3.12692,1.26528 -6.79975,0.80385 -9.69996,2.67336 -0.76688,1.0827 -2.60638,2.57004 -3.54474,0.82464 -0.40998,-1.75097 1.47726,-2.86834 2.75928,-3.60444 3.09707,-1.46784 6.65862,-1.27314 9.83845,-2.50358 3.80183,-1.294434 7.55485,-3.851887 8.91925,-7.791656 0.70291,-2.179729 0.36272,-4.503111 0.17451,-6.732246 -0.0585,-1.981588 -2.10728,-3.018855 -3.82551,-2.210447 -3.72992,0.51369 -7.69793,0.552678 -11.07886,2.432243 -3.29906,1.825321 -5.07685,5.46713 -5.98273,8.986069 -0.99558,3.911322 -0.93343,8.018117 -0.37247,11.991427 0.0797,1.58722 -2.63304,2.27359 -2.7123,0.36546 z"
         style="fill:#008000;fill-opacity:1;stroke:none" />
      <path
         inkscape:connector-curvature="0"
         id="path2988-29"
         d="m -327.57603,471.27542 c 13.24085,25.76555 31.44138,50.86761 58.27072,63.62313 19.24685,9.51882 42.97491,7.64066 61.23158,-3.3007 12.34281,-7.73975 28.28713,-10.03197 37.83283,-21.83663 4.26914,-4.67267 4.6702,-11.78128 1.51795,-17.1494 -6.17641,-15.8009 -16.09957,-30.96587 -30.74199,-40.04324 -17.69387,-10.01795 -39.14049,-8.49266 -58.25018,-4.03789 -15.01862,3.17369 -27.70804,14.25247 -43.40707,14.56925 -5.64697,-2.13686 -16.37091,-3.07417 -15.47544,5.89905 2.90392,7.65101 12.8676,7.07061 19.57773,6.58963 15.42085,-2.33327 28.36844,-12.12242 43.49818,-15.56208 17.64013,-4.77951 38.30682,-4.66782 53.47233,6.73354 8.19435,6.44009 12.81691,16.07409 17.77354,24.96609 4.81686,7.62785 -0.27899,16.75134 -8.81926,18.06828 -15.38391,7.54342 -30.45956,17.48383 -47.99858,18.98476 -17.09216,1.49753 -33.06042,-7.72831 -45.42543,-18.70696 -13.70112,-12.23165 -23.90698,-27.89006 -31.8907,-44.31272 -3.7342,-6.19336 -15.71791,-1.88752 -11.16621,5.51589 z"
         style="fill:#008000;fill-opacity:1;stroke:none" />
      <path
         inkscape:connector-curvature="0"
         id="path2988-2-7"
         d="m -395.81175,573.23139 c 16.14652,27.93827 37.49471,54.75333 66.97448,67.04028 21.17842,9.22815 46.17075,5.31081 64.62098,-8.37196 12.44554,-9.63546 29.15489,-13.42511 38.30257,-27.41434 4.14093,-5.57476 3.98264,-13.5916 0.20152,-19.3824 -7.84215,-17.28138 -19.60281,-33.56292 -35.86533,-42.64582 -19.57357,-9.90718 -42.17706,-6.56005 -62.06352,-0.0998 -15.65599,4.70946 -28.19489,18.12259 -44.80635,19.67423 -6.15989,-1.97059 -17.60178,-2.2068 -15.91649,7.80608 3.70529,8.37449 14.21696,6.96352 21.28874,5.9121 16.1512,-3.7959 29.06951,-15.77988 44.82141,-20.79658 18.30246,-6.7132 40.2137,-8.16182 57.22126,3.49217 9.21264,6.61108 14.90202,17.0825 20.88455,26.69486 5.73071,8.20276 1.07885,18.8408 -7.86386,20.97084 -15.68455,9.64654 -30.84573,21.96251 -49.31002,24.98463 -17.99099,2.98425 -35.6708,-6.16444 -49.67579,-17.55682 -15.5238,-12.69831 -27.62455,-29.51268 -37.43306,-47.35494 -4.46561,-6.67361 -16.81235,-0.92338 -11.38109,7.04744 z"
         style="fill:#008000;fill-opacity:1;stroke:none" />
      <path
         inkscape:connector-curvature="0"
         id="path2988-2-6-0"
         d="m -461.22863,687.77657 c 16.573,33.13533 39.14566,65.32564 71.93086,81.37887 23.52689,11.99313 52.25685,9.15049 74.17048,-5.33358 14.80824,-10.23594 34.09287,-13.48007 45.4279,-28.93136 5.08163,-6.12462 5.42446,-15.33666 1.49441,-22.23343 -7.80707,-20.35409 -20.14381,-39.81986 -38.07937,-51.32104 -21.65412,-12.66633 -47.62521,-10.3201 -70.70386,-4.22089 -18.14455,4.36953 -33.30566,18.93525 -52.33275,19.6171 -6.88949,-2.66938 -19.9101,-3.69753 -18.64341,7.90656 3.67507,9.85723 15.7433,8.93324 23.86897,8.19434 18.64913,-3.28823 34.14927,-16.18846 52.42315,-20.90432 21.29047,-6.49431 46.34897,-6.70725 64.96561,7.79423 10.06474,8.19763 15.86347,20.59296 22.05225,32.02167 5.99386,9.79414 -2.9e-4,21.69651 -10.32793,23.54962 -18.49924,10.03434 -36.57638,23.16724 -57.81039,25.41431 -20.6923,2.23489 -40.2383,-9.43557 -55.4511,-23.43816 -16.85798,-15.60198 -29.54744,-35.70183 -39.55819,-56.82979 -4.65228,-7.95531 -19.09444,-2.17224 -13.42663,7.33587 z"
         style="fill:#008000;fill-opacity:1;stroke:none" />
      <path
         inkscape:connector-curvature="0"
         id="path2988-0-3"
         d="m -241.5052,374.67535 c 6.55023,23.84228 17.35983,47.9986 37.53942,63.35155 14.41196,11.32155 34.56281,13.9068 51.7297,7.9629 11.66604,-4.30471 25.38696,-3.42811 35.428,-11.6183 4.38445,-3.15603 5.96404,-9.02422 4.27054,-14.06055 -2.39329,-14.28115 -8.0279,-28.68704 -18.67068,-38.83367 -13.02725,-11.46662 -31.21044,-13.94723 -47.95427,-13.57144 -13.10194,0.0218 -25.64212,7.05522 -38.81229,4.57132 -4.34327,-2.77377 -13.13777,-5.43427 -13.9607,2.21856 1.08636,6.89992 9.51148,8.15948 15.20122,8.93248 13.29081,0.75066 25.82086,-5.1602 39.06219,-5.38478 15.57306,-0.90433 32.81811,2.80723 43.491,14.98688 5.71791,6.81458 7.89283,15.67198 10.47672,23.96799 2.68846,7.21549 -3.16583,13.94494 -10.5308,13.54987 -14.17213,3.60829 -28.50643,9.27294 -43.42101,7.45611 -14.54067,-1.74143 -26.26506,-12.24422 -34.67245,-23.58044 -9.30422,-12.61685 -15.08858,-27.48444 -18.88282,-42.60143 -2.03518,-5.82759 -12.80001,-4.32863 -10.29377,2.65295 z"
         style="fill:#008000;fill-opacity:1;stroke:none" />
      <path
         inkscape:connector-curvature="0"
         id="path2988-0-1-2"
         d="m -171.47778,314.91306 c 7.48557,19.44525 18.56907,38.79778 36.77382,49.9851 13.03139,8.28893 30.14482,8.77241 44.043139,2.35324 9.42265,-4.58481 21.00149,-4.99665 28.73674,-12.70379 3.41273,-3.01295 4.24677,-8.06572 2.40572,-12.14733 -3.20061,-11.7753 -9.12962,-23.38426 -18.90218,-31.00302 -11.88238,-8.52633 -27.337119,-9.08649 -41.346089,-7.37183 -10.9847,1.11347 -20.91227,8.05948 -32.16364,7.07749 -3.87387,-1.96286 -11.47081,-3.4587 -11.52118,3.02731 1.4877,5.69507 8.6578,6.04702 13.4935,6.21962 11.20766,-0.48149 21.22055,-6.48538 32.3052,-7.7805 12.98307,-2.06005 27.754019,-0.38921 37.721749,8.9318 5.36434,5.23637 7.92848,12.48186 10.78862,19.22244 2.85752,5.82578 -1.48905,11.95805 -7.69791,12.24239 -11.58232,4.21032 -23.12873,10.15855 -35.787099,9.88174 -12.33855,-0.24484 -23.04784,-8.07185 -31.04537,-16.87498 -8.8566,-9.80204 -14.94978,-21.78565 -19.395,-34.14473 -2.19371,-4.71656 -11.09519,-2.55982 -8.41002,3.08505 z"
         style="fill:#008000;fill-opacity:1;stroke:none" />
      <path
         inkscape:connector-curvature="0"
         id="path2988-0-1-9-3"
         d="m -102.06124,259.57825 c 6.809857,15.51849 16.539441,30.82695 31.749187,39.23475 10.897986,6.24664 24.820301,5.99872 35.871974,0.26298 7.483985,-4.07783 16.876078,-4.84595 22.872203,-11.39739 2.6599461,-2.57572 3.1484117,-6.71217 1.499793,-9.95945 -3.041277,-9.44728 -8.293092,-18.65728 -16.51827,-24.48144 -9.973349,-6.48252 -22.55088,-6.35902 -33.868589,-4.44141 -8.883093,1.31593 -16.68891,7.33105 -25.867116,6.95448 -3.220908,-1.44976 -9.449223,-2.38065 -9.247317,2.89094 1.421942,4.5714 7.260632,4.58892 11.195981,4.54809 9.087897,-0.81082 16.998309,-6.06368 25.955798,-7.53095 10.471268,-2.15981 22.534831,-1.35533 30.982325,5.84455 4.554433,4.05356 6.908991,9.84434 9.485145,15.2138 2.539777,4.6263 -0.762098,9.77133 -5.795999,10.23482 -9.252674,3.85441 -18.411126,9.11948 -28.706083,9.36851 -10.033892,0.26303 -19.027954,-5.69526 -25.855321,-12.54814 -7.562737,-7.63231 -12.961951,-17.14053 -17.036306,-27.01552 -1.958904,-3.74995 -9.110365,-1.66439 -6.717405,2.82138 z"
         style="fill:#008000;fill-opacity:1;stroke:none" />
      <path
         inkscape:transform-center-y="-86.873119"
         inkscape:transform-center-x="-422.24376"
         inkscape:connector-curvature="0"
         id="path2988-0-1-9-9-47"
         d="m -37.043538,217.55307 c 6.04269,11.36166 14.28422,22.39753 26.2812,27.89526 8.60871,4.10755 19.13651,3.1247 27.17725,-1.84958 5.43397,-3.51516 12.50178,-4.63318 16.66788,-9.93636 1.867,-2.10225 2.00063,-5.26227 0.56684,-7.62695 -2.84241,-6.97978 -7.34508,-13.65363 -13.9058,-17.59393 -7.92203,-4.33897 -17.43867,-3.52712 -25.89891,-1.42874 -6.65112,1.50375 -12.21814,6.5042 -19.18937,6.74324 -2.52166,-0.9138 -7.29091,-1.26296 -6.83696,2.71715 1.33777,3.38025 5.75983,3.06005 8.73734,2.80439 6.83504,-1.13299 12.52479,-5.56222 19.2236,-7.18481 7.80548,-2.23344 16.98595,-2.31326 23.79358,2.65603 3.68011,2.80925 5.7937,7.05955 8.05103,10.97816 2.18733,3.35798 -0.019,7.44238 -3.8042,8.08081 -6.78599,3.44699 -13.42006,7.95675 -21.20116,8.73328 -7.58264,0.77222 -14.73322,-3.22572 -20.29428,-8.0248 -6.16239,-5.34725 -10.7937,-12.23851 -14.44277,-19.48314 -1.69745,-2.72759 -6.99342,-0.73997 -4.92527,2.51999 z"
         style="fill:#008000;fill-opacity:1;stroke:none" />
      <path
         inkscape:transform-center-y="193.3956"
         inkscape:transform-center-x="-426.51342"
         inkscape:connector-curvature="0"
         id="path2988-0-1-9-9-4-34"
         d="m 25.177048,179.13213 c 2.81962,9.49271 7.347349,19.07598 15.55428,25.05691 5.864213,4.41432 13.954216,5.28314 20.779005,2.7614 4.635691,-1.81999 10.136985,-1.58226 14.089938,-4.9446 1.729536,-1.29992 2.31364,-3.66262 1.593878,-5.66529 -1.076187,-5.69861 -3.451298,-11.42041 -7.796562,-15.39539 -5.310961,-4.48384 -12.612231,-5.32698 -19.313572,-5.0383 -5.246016,0.11691 -10.209203,3.03668 -15.503234,2.15084 -1.761782,-1.07515 -5.305397,-2.06749 -5.571732,1.00359 0.491956,2.75386 3.875888,3.18864 6.160516,3.45121 5.328032,0.19083 10.296415,-2.27941 15.596572,-2.47862 6.228196,-0.49068 13.163979,0.85313 17.538108,5.64189 2.345798,2.68145 3.28978,6.21011 4.392886,9.51061 1.136068,2.867 -1.152505,5.60988 -4.104855,5.51246 -5.644908,1.5618 -11.337785,3.94836 -17.324781,3.344 -5.836676,-0.57724 -10.617967,-4.68592 -14.077972,-9.15573 -3.829687,-4.97513 -6.268554,-10.88057 -7.912633,-16.90228 -0.863028,-2.31665 -5.161035,-1.62757 -4.09985,1.14724 z"
         style="fill:#008000;fill-opacity:1;stroke:none" />
      <path
         inkscape:transform-center-y="98.994949"
         inkscape:transform-center-x="-44.446712"
         inkscape:connector-curvature="0"
         id="path2988-0-1-9-9-4-3-0"
         d="m 68.818596,156.12712 c 0.45324,8.03608 2.24055,16.46353 7.61226,22.73043 3.81198,4.58922 10.04815,6.79079 15.91827,6.07375 4.0073,-0.57174 8.314054,0.64608 12.070054,-1.27342 1.6113,-0.70441 2.51553,-2.46389 2.32118,-4.1826 0.2155,-4.70879 -0.59202,-9.67904 -3.28484,-13.63646 -3.36137,-4.54065 -8.978494,-6.57427 -14.332974,-7.60037 -4.17122,-0.88953 -8.64342,0.49079 -12.66492,-1.20085 -1.19246,-1.17996 -3.8093,-2.62844 -4.59483,-0.24921 -0.12639,2.27027 2.46875,3.2476 4.22664,3.88293 4.17848,1.14832 8.57064,0.12452 12.80011,0.95908 5.01803,0.77776 10.25237,3.13896 12.815664,7.74544 1.35347,2.56001 1.43958,5.52771 1.69425,8.34475 0.3619,2.48031 -1.96169,4.22139 -4.278584,3.59171 -4.75723,0.17863 -9.70675,1.00062 -14.32904,-0.59811 -4.50846,-1.54913 -7.52114,-5.69391 -9.42116,-9.87697 -2.09778,-4.65198 -2.92136,-9.77942 -3.09453,-14.85007 -0.24896,-1.9939 -3.77747,-2.25343 -3.45755,0.13997 z"
         style="fill:#008000;fill-opacity:1;stroke:none" />
      <path
         inkscape:transform-center-y="68.690373"
         inkscape:transform-center-x="-3.2928798"
         inkscape:connector-curvature="0"
         id="path2988-0-1-9-9-4-3-4-8"
         d="m 98.949243,144.05691 c 3.849407,6.04431 8.805707,12.11338 15.324337,15.79579 4.68828,2.72162 10.02602,3.12154 13.82452,1.36764 2.55694,-1.26014 6.11024,-1.21506 7.89873,-3.45289 0.81959,-0.86911 0.67999,-2.3987 -0.21158,-3.6714 -1.91846,-3.64056 -4.66874,-7.27059 -8.29506,-9.73966 -4.35115,-2.77711 -9.18127,-3.17598 -13.38451,-2.85934 -3.31405,0.1778 -5.84141,2.15102 -9.40306,1.68544 -1.35421,-0.65613 -3.82464,-1.22464 -3.32946,0.7539 0.9092,1.75985 3.15733,1.97298 4.66844,2.09697 3.43288,0.0184 6.06084,-1.66611 9.39153,-1.89787 3.85835,-0.43717 8.56417,0.29053 12.38498,3.28194 2.07359,1.67703 3.43822,3.9259 4.85475,6.02502 1.34368,1.81994 0.48056,3.62716 -1.41981,3.62236 -3.25523,1.11401 -6.3625,2.75889 -10.30432,2.48774 -3.84024,-0.25666 -7.77305,-2.80309 -10.94297,-5.60741 -3.51458,-3.12181 -6.3452,-6.86858 -8.69508,-10.70563 -1.05076,-1.47166 -3.637517,-0.94478 -2.361437,0.8174 z"
         style="fill:#008000;fill-opacity:1;stroke:none" />
      <path
         inkscape:transform-center-y="-50.507627"
         inkscape:transform-center-x="-115.15739"
         inkscape:connector-curvature="0"
         id="path2988-0-1-9-9-4-3-4-2-1"
         d="m 133.98528,129.81609 c 2.11053,6.0058 5.3206,12.01572 10.7791,15.5964 3.90477,2.64887 9.12657,2.95092 13.42879,1.11602 2.91888,-1.31512 6.4586,-1.33642 8.89033,-3.62025 1.06937,-0.88931 1.36967,-2.42481 0.84427,-3.68787 -0.87117,-3.62487 -2.57705,-7.22354 -5.49267,-9.63836 -3.55175,-2.71099 -8.26632,-3.0215 -12.55988,-2.62427 -3.36459,0.24093 -6.45897,2.27254 -9.88609,1.87115 -1.16529,-0.63438 -3.47179,-1.15973 -3.54569,0.82054 0.40294,1.7526 2.58939,1.92476 4.06456,2.02112 3.427,-0.0459 6.53892,-1.78906 9.93568,-2.08458 3.98338,-0.51195 8.47912,0.13156 11.43899,3.06798 1.59093,1.64749 2.3086,3.88329 3.12121,5.96754 0.82007,1.80488 -0.56262,3.63835 -2.46127,3.66916 -3.57503,1.18126 -7.15478,2.89357 -11.01793,2.69483 -3.76577,-0.18608 -6.96558,-2.67295 -9.32847,-5.43344 -2.6162,-3.07329 -4.36883,-6.78784 -5.61482,-10.60221 -0.62738,-1.46014 -3.36519,-0.88183 -2.59611,0.86624 z"
         style="fill:#008000;fill-opacity:1;stroke:none" />
    </g>
  </g>
</svg>
